HIERARCHY
ROOT Hips
{
	OFFSET 0.000000 0.000000 0.000000
	CHANNELS 6 Xposition Yposition Zposition Xrotation Yrotation Zrotation
	JOINT LeftUpLeg_virtual
	{
		OFFSET 0.000000 0.000000 0.000000
		CHANNELS 3 Xrotation Yrotation Zrotation
		JOINT LeftUpLeg
		{
			OFFSET 15.427100 -6.655098 0.678600
			CHANNELS 3 Xrotation Yrotation Zrotation
			JOINT LeftLeg
			{
				OFFSET 4.081073 -39.591068 13.024000
				CHANNELS 3 Xrotation Yrotation Zrotation
				JOINT LeftFoot
				{
					OFFSET -4.081074 -37.707932 -15.979700
					CHANNELS 3 Xrotation Yrotation Zrotation
					JOINT LeftToeBase
					{
						OFFSET 5.346399 -15.068900 20.645000
						CHANNELS 3 Xrotation Yrotation Zrotation
						JOINT LeftToe_End
						{
							OFFSET 2.754700 0.931300 11.300900
							CHANNELS 3 Xrotation Yrotation Zrotation
							End Site
							{
								OFFSET 0 0 0
							}
						}
					}
				}
			}
		}
	}
	JOINT RightUpLeg_virtual
	{
		OFFSET 0.000000 0.000000 0.000000
		CHANNELS 3 Xrotation Yrotation Zrotation
		JOINT RightUpLeg
		{
			OFFSET -15.569500 -6.655098 0.678600
			CHANNELS 3 Xrotation Yrotation Zrotation
			JOINT RightLeg
			{
				OFFSET -4.081825 -39.591045 13.023800
				CHANNELS 3 Xrotation Yrotation Zrotation
				JOINT RightFoot
				{
					OFFSET 4.081824 -37.707954 -15.979600
					CHANNELS 3 Xrotation Yrotation Zrotation
					JOINT RightToeBase
					{
						OFFSET -5.346400 -15.068900 20.645000
						CHANNELS 3 Xrotation Yrotation Zrotation
						JOINT RightToe_End
						{
							OFFSET -2.754700 0.931300 11.300900
							CHANNELS 3 Xrotation Yrotation Zrotation
							End Site
							{
								OFFSET 0 0 0
							}
						}
					}
				}
			}
		}
	}
	JOINT Spine_virtual
	{
		OFFSET 0.000000 0.000000 0.000000
		CHANNELS 3 Xrotation Yrotation Zrotation
		JOINT Spine
		{
			OFFSET -0.279200 12.230698 -2.892100
			CHANNELS 3 Xrotation Yrotation Zrotation
			JOINT Spine1
			{
				OFFSET -0.232667 10.192268 -1.242267
				CHANNELS 3 Xrotation Yrotation Zrotation
				JOINT Spine1_split
				{
					OFFSET -0.232667 10.192268 -1.242267
					CHANNELS 3 Xrotation Yrotation Zrotation
					JOINT Spine2
					{
						OFFSET -0.232667 10.192268 -1.242267
						CHANNELS 3 Xrotation Yrotation Zrotation
						JOINT Neck_virtual
						{
							OFFSET 0.000000 0.000000 0.000000
							CHANNELS 3 Xrotation Yrotation Zrotation
							JOINT Neck
							{
								OFFSET -0.418800 17.814194 8.416900
								CHANNELS 3 Xrotation Yrotation Zrotation
								JOINT Head
								{
									OFFSET 0.000000 7.031097 3.806800
									CHANNELS 3 Xrotation Yrotation Zrotation
									JOINT HeadTop_End
									{
										OFFSET 0.000000 24.646606 12.978600
										CHANNELS 3 Xrotation Yrotation Zrotation
										End Site
										{
											OFFSET 0 0 0
										}
									}
								}
							}
						}
						JOINT LeftShoulder_virtual
						{
							OFFSET 0.000000 0.000000 0.000000
							CHANNELS 3 Xrotation Yrotation Zrotation
							JOINT LeftShoulder
							{
								OFFSET 8.476499 7.247704 -3.868750
								CHANNELS 3 Xrotation Yrotation Zrotation
								JOINT LeftShoulder_split
								{
									OFFSET 8.476499 7.247704 -3.868750
									CHANNELS 3 Xrotation Yrotation Zrotation
									JOINT LeftArm
									{
										OFFSET 9.308998 -2.777710 0.208600
										CHANNELS 3 Xrotation Yrotation Zrotation
										JOINT LeftForeArm
										{
											OFFSET 29.972298 0.000000 0.000000
											CHANNELS 3 Xrotation Yrotation Zrotation
											JOINT LeftHand
											{
												OFFSET 26.026505 0.000000 0.000000
												CHANNELS 3 Xrotation Yrotation Zrotation
												End Site
												{
													OFFSET 0 0 0
												}
											}
										}
									}
								}
							}
						}
						JOINT RightShoulder_virtual
						{
							OFFSET 0.000000 0.000000 0.000000
							CHANNELS 3 Xrotation Yrotation Zrotation
							JOINT RightShoulder
							{
								OFFSET -7.570500 7.247704 -3.868750
								CHANNELS 3 Xrotation Yrotation Zrotation
								JOINT RightShoulder_split
								{
									OFFSET -7.570500 7.247704 -3.868750
									CHANNELS 3 Xrotation Yrotation Zrotation
									JOINT RightArm
									{
										OFFSET -9.308998 -2.777710 0.208500
										CHANNELS 3 Xrotation Yrotation Zrotation
										JOINT RightForeArm
										{
											OFFSET -29.972300 0.000000 0.000000
											CHANNELS 3 Xrotation Yrotation Zrotation
											JOINT RightHand
											{
												OFFSET -26.026505 0.000000 0.000000
												CHANNELS 3 Xrotation Yrotation Zrotation
												End Site
												{
													OFFSET 0 0 0
												}
											}
										}
									}
								}
							}
						}
					}
				}
			}
		}
	}
}
MOTION
Frames: 9
Frame Time: 0.03333333
-1.274563 86.260468 -4.810772 0.000000 0.000000 0.000000 -24.370882 -10.519819 -1.548139 11.651202 23.245255 3.781056 36.936369 9.727117 -9.405388 -25.787164 27.799661 9.799043 -2.548758 -0.567382 -2.573279 0.000000 0.000000 0.000000 -23.446904 -9.531751 -1.798544 24.742864 -13.619378 0.008149 22.651443 -7.753568 -4.519400 -22.052275 -23.710242 2.221034 -8.477508 -0.249866 0.697610 0.000000 0.000000 0.000000 -23.656502 -9.720906 -1.592210 10.734590 -4.484676 -1.193124 2.874265 -1.880830 0.172685 0.717483 2.610083 -0.006072 0.000000 0.000000 0.000000 2.777764 -2.031693 -0.082178 0.646265 0.965943 -2.702513 -5.064098 -1.786571 4.552680 0.000000 0.000000 0.000000 3.801472 -2.274143 0.215696 0.077721 -17.628290 -11.697085 0.819121 -0.900015 -0.298841 -19.189015 2.932806 -38.104823 2.902372 -64.747468 3.393694 0.000000 0.000000 0.000000 3.503439 -1.933157 0.146218 0.369438 13.006173 16.781444 0.327671 0.488891 -0.697667 -10.948311 -4.522560 62.770518 -0.474341 41.618286 1.739129 0.000000 0.000000 0.000000 
-1.325513 86.180145 -4.813499 0.000000 0.000000 0.000000 -24.283822 -10.990978 -1.638870 10.803823 22.777279 5.017634 38.218214 9.367781 -9.591571 -24.850422 27.197866 9.168065 -2.566432 -0.347765 -2.943183 0.000000 0.000000 0.000000 -23.344801 -9.715726 -1.821777 24.566922 -14.125513 0.269336 22.563694 -7.798214 -4.521897 -22.280436 -23.831425 2.231733 -8.353461 -0.202646 0.540580 0.000000 0.000000 0.000000 -23.760314 -10.228115 -1.861250 10.879231 -4.699344 -1.269164 2.788369 -1.938555 0.182634 0.727481 2.151585 0.018430 0.000000 0.000000 0.000000 2.919317 -2.044705 -0.040581 0.692038 0.971406 -2.634159 -5.094274 -1.860447 4.726022 0.000000 0.000000 0.000000 3.723776 -2.288892 0.233411 0.100389 -17.634585 -11.714574 0.718367 -1.182659 -0.081995 -19.239760 2.892130 -38.176717 2.934278 -64.765391 3.444371 0.000000 0.000000 0.000000 3.403972 -1.975120 0.171912 0.361423 12.873536 16.698525 0.433159 0.086027 -0.641563 -11.146089 -4.695508 62.849570 -0.533281 41.917574 1.755579 0.000000 0.000000 0.000000 
-1.531841 86.203896 -4.783972 0.000000 0.000000 0.000000 -24.212030 -11.975121 -2.264097 8.528328 22.060143 7.243570 40.776147 8.771164 -9.768205 -23.382924 25.505079 8.374950 -2.750009 -0.163760 -3.279478 0.000000 0.000000 0.000000 -23.376710 -10.331142 -2.329315 24.623728 -14.750109 0.795809 22.135571 -7.744709 -4.157331 -22.929886 -23.828221 1.851142 -7.362322 -0.160722 0.428175 0.000000 0.000000 0.000000 -23.829314 -11.314359 -2.605466 10.949993 -4.884762 -1.313077 2.706927 -1.996561 0.203738 0.716441 1.819259 0.084788 0.000000 0.000000 0.000000 3.051878 -2.059357 0.007382 0.703348 0.955855 -2.492039 -5.174843 -2.055532 5.076938 0.000000 0.000000 0.000000 3.658554 -2.296615 0.241452 0.143314 -17.570412 -11.575375 0.641853 -1.346939 -0.023286 -19.484699 2.835773 -38.253424 2.974986 -64.776223 3.559571 0.000000 0.000000 0.000000 3.307111 -2.026318 0.187866 0.377826 12.669266 16.483511 0.543120 -0.177655 -0.540998 -11.358383 -4.951425 62.932564 -0.600071 42.249949 1.801373 0.000000 0.000000 0.000000 
-1.709412 86.282158 -4.710974 0.000000 0.000000 0.000000 -24.222281 -13.346418 -3.321430 5.203910 21.009361 9.897162 43.909674 7.906852 -9.782760 -21.703537 22.769636 7.266822 -3.058840 -0.061984 -3.426133 0.000000 0.000000 0.000000 -23.575028 -11.410197 -3.244262 24.764295 -15.348139 1.350895 21.568709 -7.518166 -3.486542 -23.564892 -23.713771 1.401825 -5.997419 -0.120212 0.354831 0.000000 0.000000 0.000000 -23.905922 -12.894678 -3.697022 10.971434 -5.010583 -1.287006 2.648808 -2.029620 0.228779 0.714825 1.667630 0.129974 0.000000 0.000000 0.000000 3.130582 -2.071042 0.046734 0.683180 0.921581 -2.315038 -5.309459 -2.319570 5.501120 0.000000 0.000000 0.000000 3.599662 -2.295653 0.236092 0.199314 -17.444568 -11.300183 0.490509 -1.392000 -0.121881 -19.846052 2.818447 -38.312737 2.982526 -64.769516 3.677792 0.000000 0.000000 0.000000 3.230498 -2.068450 0.197953 0.403762 12.473355 16.212641 0.621410 -0.196835 -0.501347 -11.520817 -5.224635 63.003892 -0.642314 42.458317 1.848208 0.000000 0.000000 0.000000 
-1.799070 86.392006 -4.421545 0.000000 0.000000 0.000000 -24.338915 -14.942770 -4.592627 1.546664 19.431617 12.217205 46.751323 6.813198 -9.406835 -20.024515 19.179361 5.534916 -3.491907 -0.060560 -3.205190 0.000000 0.000000 0.000000 -23.871981 -12.928493 -4.390589 24.769633 -15.744337 1.566366 20.997228 -6.897194 -2.632016 -23.634775 -23.449528 1.523539 -5.143228 -0.087410 0.298635 0.000000 0.000000 0.000000 -24.037669 -14.891098 -4.969911 10.988479 -5.079871 -1.206643 2.619639 -2.031980 0.248537 0.686584 1.598502 0.088855 0.000000 0.000000 0.000000 3.137742 -2.077928 0.070349 0.657973 0.900380 -2.151557 -5.472139 -2.569521 5.892123 0.000000 0.000000 0.000000 3.550472 -2.285398 0.221614 0.261895 -17.284982 -10.942376 0.278255 -1.360426 -0.353562 -20.205185 2.827767 -38.344610 2.947682 -64.799453 3.755741 0.000000 0.000000 0.000000 3.185034 -2.089874 0.198289 0.452974 12.317899 15.949007 0.639926 -0.058797 -0.540244 -11.624475 -5.464395 63.021896 -0.646504 42.477554 1.876216 0.000000 0.000000 0.000000 
-1.756979 86.498032 -3.901331 0.000000 0.000000 0.000000 -24.506568 -16.675833 -5.861872 -1.829106 17.361641 13.554463 48.678598 5.655343 -8.529438 -18.389332 15.185341 3.083916 -3.879591 -0.156815 -2.610398 0.000000 0.000000 0.000000 -24.160085 -14.780333 -5.529351 24.512319 -15.783346 1.264913 20.596302 -5.823941 -1.781894 -22.984333 -23.025275 2.325706 -5.015247 -0.055932 0.265919 0.000000 0.000000 0.000000 -24.267063 -17.110821 -6.231421 11.020509 -5.098644 -1.097226 2.623101 -2.010130 0.266934 0.637374 1.688591 0.043481 0.000000 0.000000 0.000000 3.083468 -2.078494 0.077102 0.648732 0.909376 -2.048669 -5.621735 -2.725412 6.148533 0.000000 0.000000 0.000000 3.524186 -2.271338 0.200852 0.320340 -17.130772 -10.583900 0.072367 -1.287177 -0.621786 -20.443294 2.840636 -38.349986 2.889037 -64.897206 3.774473 0.000000 0.000000 0.000000 3.171682 -2.085178 0.194404 0.533249 12.225426 15.749668 0.606088 0.161523 -0.602891 -11.677787 -5.650597 62.961865 -0.616030 42.416448 1.874941 0.000000 0.000000 0.000000 
-1.590439 86.605354 -3.186144 0.000000 0.000000 0.000000 -24.713909 -18.661344 -7.029729 -4.467317 14.879420 13.688048 49.278562 4.651729 -7.085660 -16.697610 11.273897 0.130048 -4.321864 -0.293141 -1.686638 0.000000 0.000000 0.000000 -24.384411 -16.908429 -6.544767 23.945470 -15.402024 0.517127 20.364240 -4.477800 -1.121436 -22.008169 -22.437042 3.290606 -4.894025 -0.023189 0.324169 0.000000 0.000000 0.000000 -24.618604 -19.460990 -7.381794 11.082048 -5.117737 -0.995540 2.650717 -1.986951 0.277434 0.628016 1.758678 -0.005325 0.000000 0.000000 0.000000 3.005385 -2.075954 0.069668 0.690900 0.942029 -2.024353 -5.730222 -2.765569 6.219040 0.000000 0.000000 0.000000 3.508212 -2.262466 0.181290 0.362585 -17.010207 -10.286606 -0.114116 -1.213867 -0.845965 -20.534643 2.836262 -38.367164 2.795529 -65.041815 3.717333 0.000000 0.000000 0.000000 3.193062 -2.067566 0.196850 0.655475 12.158647 15.621329 0.551568 0.377441 -0.610636 -11.663016 -5.778506 62.816608 -0.564222 42.406309 1.841904 0.000000 0.000000 0.000000 
-1.329443 86.715858 -2.354279 0.000000 0.000000 0.000000 -24.989758 -21.096407 -8.126070 -6.092267 12.173424 12.610559 48.421257 4.164969 -5.189842 -15.137559 8.035384 -2.705636 -4.486347 -0.401858 -0.708815 0.000000 0.000000 0.000000 -24.534734 -19.231998 -7.450495 23.162240 -14.700775 -0.516958 20.302292 -3.106666 -0.699959 -21.284963 -21.742729 3.815716 -4.259586 0.023934 0.527814 0.000000 0.000000 0.000000 -25.098416 -21.810561 -8.475160 11.155398 -5.150674 -0.932305 2.681733 -1.978790 0.279982 0.650011 1.777859 -0.029401 0.000000 0.000000 0.000000 2.939281 -2.072951 0.063175 0.780107 0.994862 -2.072142 -5.781247 -2.703701 6.116490 0.000000 0.000000 0.000000 3.496729 -2.263511 0.168729 0.380365 -16.936564 -10.102010 -0.202090 -1.129573 -0.951864 -20.499040 2.771600 -38.434397 2.693739 -65.188104 3.608747 0.000000 0.000000 0.000000 3.220486 -2.054602 0.204803 0.810947 12.080667 15.525329 0.496588 0.560862 -0.575570 -11.537127 -5.836152 62.599121 -0.512207 42.475239 1.791520 0.000000 0.000000 0.000000 
-1.045455 86.830559 -1.454885 0.000000 0.000000 0.000000 -25.341812 -23.875138 -9.167580 -6.863388 9.600691 10.692752 46.501663 4.221164 -3.072387 -13.828304 5.772227 -4.813572 -4.169124 -0.431475 -0.044078 0.000000 0.000000 0.000000 -24.666029 -21.576540 -8.306354 22.320425 -13.865389 -1.611466 20.356593 -1.877207 -0.567645 -20.954044 -21.011959 3.691086 -3.503778 0.098562 0.839882 0.000000 0.000000 0.000000 -25.725534 -24.052598 -9.598661 11.244170 -5.184104 -0.881857 2.696015 -1.983502 0.276102 0.622493 1.783412 0.034753 0.000000 0.000000 0.000000 2.901515 -2.072302 0.056752 0.876011 1.040837 -2.156713 -5.794569 -2.596405 5.900901 0.000000 0.000000 0.000000 3.480112 -2.274310 0.162908 0.377648 -16.892103 -10.034922 -0.128150 -1.055951 -0.914270 -20.395452 2.652307 -38.562165 2.613790 -65.269971 3.486817 0.000000 0.000000 0.000000 3.227223 -2.054286 0.219256 0.971743 11.970196 15.441092 0.417795 0.729905 -0.518813 -11.277618 -5.814265 62.371580 -0.459238 42.609951 1.724193 0.000000 0.000000 0.000000 
